<svg xmlns="http://www.w3.org/2000/svg" viewBox="0 0 587.9 177.4"><title>waypoint</title><g id="Layer_2" data-name="Layer 2"><g id="Layer_1-2" data-name="Layer 1"><path d="M.1,89.4,22.6,89v.3h.6l22.4-56-1,56.1,23.9-.5,33-84.6,2.6-2.5V1.1H88.9V5a12.6,12.6,0,0,1-.5,3.3c-3.3,9.1-6.8,18.2-10.3,27.2L69.9,56.4,71,1.1H46.9L25.7,55.4v1H25c0-10.7.2-21.3.5-31.9.1-3.6.2-7.1.5-10.7.2-2,.4-4,.8-6a15.7,15.7,0,0,1,.8-3.1,12.3,12.3,0,0,1,1.2-2.6l.7-1H0C.5,2.7,1,4.3,1.4,5.9v4.4C1.4,23.1,1.3,35.9,1,48.7ZM131.7,7.2,109.6,48.3,99.8,66.2c-1.6,3.1-3.4,6.2-5.2,9.2-3.1,4.7-6.2,9.3-9.5,13.9l17.6-.3a32.1,32.1,0,0,1,.7-7.6,17.3,17.3,0,0,1,1.6-3.7c2.1-4.3,4.4-8.5,6.7-12.6h25.9c.4,4.9.9,9.8,1.3,14.7a5.9,5.9,0,0,1-.5,3.2c-.9,2-1.8,4-2.8,6H168c-.9-2-1.6-4-2.3-6s-.4-2.9-.5-4.3c-1.3-12.6-2.4-25.1-3.4-37.7s-2.2-26.6-3.2-39.9H130.8l1.1,3.6a3,3,0,0,1,.2,1.3A2.5,2.5,0,0,1,131.7,7.2ZM119.8,50.8c3.5-6.1,6.8-12.4,10.1-18.6,1-2,2-4.1,2.8-6.1l1-2.7,2.6,27.4Zm65,38.2,29.8.3V88.1c-.1-.7-.1-1.4-.2-2.1l-.3-1.4a20.1,20.1,0,0,1,.2-6c.8-5.3,1.9-10.7,3.2-16l1.3-5.2a5.4,5.4,0,0,1,1.1-2.6L238.7,26l8.2-12.5,2.7-4.1c.5-.6.9-1.3,1.5-1.9,2-2.2,4-4.3,6.1-6.4h-18a29.9,29.9,0,0,1-1,5.2l-.3.7-.7,1.3c-2.8,4.8-5.8,9.5-8.8,14.1L219,36.7,212.5,9.5a18.5,18.5,0,0,1-.4-2.3,5.9,5.9,0,0,1,.1-1.9l.7-4.2H179.8c1.4,3.7,2.7,7.4,3.8,11.2a29.4,29.4,0,0,1,1.2,5.9c1.1,5.2,2.3,10.3,3.7,15.3l5.4,20.7A4.5,4.5,0,0,1,194,57l-3.5,15.4-1.7,6.8c-.3,1.3-.7,2.5-1.1,3.8S185.9,87,184.8,89Zm54.9-.8h28.6a59,59,0,0,1-.3-8.4,49.9,49.9,0,0,1,.7-5.4c1.2-5.9,2.5-11.8,3.9-17.6,9,0,18-.2,27-.5a54.6,54.6,0,0,0,5.7-.4h.8a9.2,9.2,0,0,0,3.2-1.8,18.7,18.7,0,0,0,3.1-3.2,25.6,25.6,0,0,0,4.4-8.3c.7-2.7,1.4-5.3,1.9-8,1.6-7.5,3-15.1,4.3-22.6h-.3v-.2l-.2-1.1a18.4,18.4,0,0,0-1.4-5.1,8,8,0,0,0-2.3-2.9A9.9,9.9,0,0,0,315.5,1L311.4.3l-12-.3c-14,0-27.9.1-41.9.3V1.6a9.4,9.4,0,0,0,.4,1.6l.3,1.1a14.8,14.8,0,0,1,0,4.2c-.1.9-.2,1.8-.4,2.8L243.6,80Zm57.7-66.6-3.3,15.5a7.3,7.3,0,0,1-.6,2.1,4,4,0,0,1-2.3,2.3,12,12,0,0,1-3.3.6c-4.1.1-8.1.1-12.2,0l5.8-26.8c3.9-.2,7.9-.2,11.8-.3l1.9.2,1.5.6a3,3,0,0,1,.9,1.3,5.5,5.5,0,0,1,.2,2.2A15.7,15.7,0,0,1,297.4,21.6Zm34.1-2.4-9.9,50.9a27,27,0,0,0-.4,2.8,25.6,25.6,0,0,0,.5,5.5,15.5,15.5,0,0,0,.6,2.3,4.7,4.7,0,0,0,.6,1.5l.2.3,2.4,2.3a23.6,23.6,0,0,0,4.4,3.2l1.1.5h42.8L375,88a44.4,44.4,0,0,0,4.9-2.4,23.1,23.1,0,0,0,3.6-2.5,18.7,18.7,0,0,0,2.9-3.4,41.1,41.1,0,0,0,2.7-5.1,31.6,31.6,0,0,0,2-5.9c1-4.1,1.9-8.2,2.8-12.2,2.4-12,4.7-23.9,6.8-35.9h-.3l.3-3.3a29.1,29.1,0,0,0,0-5.9A11.2,11.2,0,0,0,399,6.8a16.5,16.5,0,0,0-3.3-3.7l-2.5-1.4L391.5.9,390,.5,387.8.3H350.3a10.1,10.1,0,0,0-2.5.3,18.9,18.9,0,0,0-9.7,5.6,29.1,29.1,0,0,0-3.2,4.6,48,48,0,0,0-2.6,5.7A13.8,13.8,0,0,0,331.5,19.2ZM366.4,69a7,7,0,0,1-1.8,3.1,6.7,6.7,0,0,1-1.9,1.4h-1c-2.2.1-4.4.1-6.5,0s-4.4-.2-6.6-.5h-1a2.2,2.2,0,0,1-1-.9,3.1,3.1,0,0,1-.6-1.3h0V70l1.4-7.8c2.2-12,4.5-23.9,6.9-35.9l1.7-7.7.2-.7h0a5.6,5.6,0,0,1,3-2.4l1.5-.2a69.4,69.4,0,0,1,7.9-.1l7.4.3L367,66.5A11.4,11.4,0,0,1,366.4,69Zm28.7,19.9,28.3.4c-.2-2.4-.3-4.9-.4-7.4a32.5,32.5,0,0,1,.3-4.4l.6-3.3c3.9-19.3,7.9-38.6,12.2-57.9L438,8.2a3.2,3.2,0,0,1,.3-.9c.9-2.1,1.9-4.1,3-6.2H412.9c.3,1.2.5,2.3.7,3.5a19.4,19.4,0,0,1,.2,2.4l-.2,1.6c-.9,5.1-1.8,10.1-2.8,15.1-3,15.5-6,30.9-9.2,46.3l-2.1,9.6-.3,1A91.2,91.2,0,0,1,395.1,88.9Zm52.3.1-.4-8.4,12.9-62.7,10.5,71,31,.5q5.7-28.5,11.7-56.8,1.9-9.3,4.2-18.3l.6-2.1A42,42,0,0,1,520,5.6l.6-1.2.6-.9.5-.4a1.8,1.8,0,0,0,.5-.8,5,5,0,0,0,.2-1.2H506.5a52.7,52.7,0,0,1,1,5.2,13.7,13.7,0,0,1-.1,3.5,29.3,29.3,0,0,1-.7,4.1c-1.2,4.5-2.3,9.1-3.4,13.7-3,13.8-6,27.6-8.8,41.5l-9.3-68H450.1c.2,1.2.5,2.3.7,3.5a25.3,25.3,0,0,1-.2,5.5l-.9,5.7c-.7,4.1-1.5,8.1-2.3,12-3,13.9-6,27.7-9.1,41.5-.8,3.8-1.8,7.7-2.8,11.5a16.3,16.3,0,0,1-1.8,4.6l-1,1.3a13.4,13.4,0,0,0-1.1,1.4.6.6,0,0,0-.1.4v.2l.3.3h.5l2.7.2C439.1,89.3,443.3,89.2,447.4,89Zm74.5-70.1,2.5-1.7,1.5-.6,1.2-.2,4.5-.6q5.5-.2,11.1,0L529.1,79.4a13.8,13.8,0,0,1-.8,2.7l-.9,2.3c-.4.8-.8,1.6-1.3,2.4L524.6,89h29.5V77.4l13.1-61.6,15.6.4,3.4,2,1.4-12.7h.3V1.1H528.4ZM381.1,126.7l2.3-4,.2-.3A33.4,33.4,0,0,0,389,118a7,7,0,0,0,1.6-6.1,7.9,7.9,0,0,0-4-5.2,18.2,18.2,0,0,0-10.6-1.6,13.2,13.2,0,0,0-5.1,1.6,7.8,7.8,0,0,0-3.5,3.2,7.6,7.6,0,0,0-1,6.2l-12.6,10a99,99,0,0,0-12.2.2l-10.4.7.2-1.7a13.9,13.9,0,0,0,2.1-2.7,6,6,0,0,0,1-2.5,4.4,4.4,0,0,0-.4-2.5,12.1,12.1,0,0,0-2-3,5.6,5.6,0,0,0-2.6-1.7,9.8,9.8,0,0,0-3.4-.3,16.4,16.4,0,0,0-6.6,2,1.7,1.7,0,0,0,.5-1.5,3.6,3.6,0,0,0-.7-1.8,8.4,8.4,0,0,0-2.9-2.7,13.4,13.4,0,0,0-4-1.3l-2.1-.4-2.3-.3-1.9-.5-1.1-.4q-12.5-2-25.2-3a182.3,182.3,0,0,0-25.6-.3h-.5c-2.1.3-4.2.5-6.4.6l-6.9.3a37.6,37.6,0,0,0-7.5,1,24.8,24.8,0,0,0-6.7,2.7,17.1,17.1,0,0,0-5.5.9,31.6,31.6,0,0,0-5.4,2,59,59,0,0,0-9.1,5.4,16.9,16.9,0,0,0-3.2.1l-3.4.6a4,4,0,0,0-2.3-2.8,8.5,8.5,0,0,0-4.2-.8,3.6,3.6,0,0,0-.1-2.3,6.3,6.3,0,0,0-3-2.8,9.3,9.3,0,0,0-4.7-.7,112.9,112.9,0,0,0-22.4,4.7c-7,2.3-14,4.4-21.1,6.4l-.9.4a15.9,15.9,0,0,1-5.8,1.9,22.2,22.2,0,0,1-6.3-.3,49,49,0,0,0-7.7-.5,25.1,25.1,0,0,0-9.4,2.4,151,151,0,0,0-16.3,4.5l-16.3,5.5c-5.2,1.8-10.6,3.5-16,5.1a120.7,120.7,0,0,1-15.9,3.1,2.7,2.7,0,0,0-1.5.5,32.9,32.9,0,0,1-9.8,3.6l-11.5,2.3a38.2,38.2,0,0,0-11.9,4.6,24.6,24.6,0,0,0-5.6,4.5,32.6,32.6,0,0,0-4.4,6.1,1.9,1.9,0,0,0-.3,1,2.8,2.8,0,0,0,0,1.3,7,7,0,0,0,.5,2.5,8.9,8.9,0,0,0,2.2,3l4.3,3a4.2,4.2,0,0,0,4.2.2c4.2-2.1,8.5-4.1,12.9-5.9a100.5,100.5,0,0,0,13.2-6.4c10.8-2.8,21.5-5.9,32.2-9.1l21.6-6.4a93.1,93.1,0,0,1,12.8-3.5c6.5-1.2,13.1-2.2,19.7-3.1a202.8,202.8,0,0,0,20.6-4.1l2-.4,2.4-.2a14.7,14.7,0,0,0,5.5-1.7,36.4,36.4,0,0,0,5.7-.4l5.8-1,14.8-2.7a139.7,139.7,0,0,0,19.4-.2c9.2-.8,18.4-2,27.5-3.6-6.2,2.3-12.5,4.4-18.9,6.1s-10.6,3-15.8,4.7a111.2,111.2,0,0,0-16,6.4l-.5.4a26.9,26.9,0,0,1-5.7,3.4l-6.5,2.6a53.7,53.7,0,0,0-6.9,3.1,25,25,0,0,0-6.5,5,20.6,20.6,0,0,0-7.7,7.8,22.8,22.8,0,0,0-1.5,3.6l-.6,2.3a3.9,3.9,0,0,0,.8,2.7,5.4,5.4,0,0,0,2.5,1.6,17.3,17.3,0,0,0,6.8.5,36.2,36.2,0,0,0,12.7-3.9,121.5,121.5,0,0,1,15.6-5.8l.9-.4a12.6,12.6,0,0,1,3.4-1.3l9.6-1.8,1.8-.8.9-.5.5-.5c12.6-2.5,25.3-5.1,37.8-7.8,6.4-1.3,12.8-2.5,19.2-3.5a157,157,0,0,1,18-1.9l7-.2h9.7l-20.5,20.1a11.5,11.5,0,0,0-2.1,3.3,3.2,3.2,0,0,0,.9,3.4,7.7,7.7,0,0,0,3.6,2.1,6.4,6.4,0,0,0,4.3,0,10,10,0,0,0,3.3-2.2c9-9.1,18.4-18.1,28-26.9h2.6c2-.5,4.1-.8,6.1-1.1v15.9a4.3,4.3,0,0,0,2.8,3.8,9.1,9.1,0,0,0,5.4.6,11.4,11.4,0,0,0,5.4-2.3,5.7,5.7,0,0,0,2-4.4l17.1-13.5,6.3.6-6.8,12.9a4,4,0,0,0-.1,3.4,5.7,5.7,0,0,0,2.4,2.7h0a10.1,10.1,0,0,0,3.4.9,7.8,7.8,0,0,0,3.7-.3l1.6-.9h.2l.9-1.3,1.8-2.8,2.7-4.7a12.2,12.2,0,0,0,1,4.5,7.9,7.9,0,0,0,2.6,3.2,10.5,10.5,0,0,0,3.9,1.7,15.7,15.7,0,0,0,5.3,0,10,10,0,0,0,5-2.3c2.8-2.5,5.7-4.8,8.7-7.1l-.4,1.7a6.6,6.6,0,0,0,.1,2.8,3.8,3.8,0,0,0,1.6,2.2,11.1,11.1,0,0,0,6.7,1.3l1.2-.5a73.7,73.7,0,0,0,6.9-3.4l8.5-4.5-2.1,4.8a5.8,5.8,0,0,0,.1,4.3,3.6,3.6,0,0,0,1.5,1.5,6.2,6.2,0,0,0,2.6.9,7.4,7.4,0,0,0,4.7-1l1.3-1.3,1.7-2.7,6.1-11.3a16.8,16.8,0,0,1,1.8-2.1l4.1.2c6.6,1.1,13.1,2.3,19.7,3.7l-3.8,7.3a2.9,2.9,0,0,0,.3,3.1,5,5,0,0,0,2.8,2.1,7.3,7.3,0,0,0,3.6,0,4.1,4.1,0,0,0,2.7-1.9l4.6-8.5,5.9,1.3a7.5,7.5,0,0,0-.5,1.6,2.6,2.6,0,0,0,.3,2.1,4.1,4.1,0,0,0,1.6,1.6,12.5,12.5,0,0,0,4.7,1.6,3.8,3.8,0,0,0,3.3-1l2.9-3.1,8.1,2,5,1.4,2,.8a96.2,96.2,0,0,0,14.2,4l14.7,3a125.8,125.8,0,0,1,13.8,3.2,67.7,67.7,0,0,1,12.7,5.2,4.7,4.7,0,0,0,3.3.3,5.6,5.6,0,0,0,2.8-1.6,2.6,2.6,0,0,0,.2-3.1,12,12,0,0,0-2.6-2.4c-2.7-1.9-5.5-3.7-8.3-5.5l-1.7-.9h0l-14.3-4a74.7,74.7,0,0,0,7.9-2.9l16.5-7.1,10.9-6.4,12.5-8.1a2.8,2.8,0,0,0,1.2-1.4,3.2,3.2,0,0,0,.2-1.7,2.8,2.8,0,0,0-1.5-2.4,3.8,3.8,0,0,0-2.9-1.1l-2.1.2a2,2,0,0,0-1.1.3l-1.3.6c-3.2,1.8-6.4,3.7-9.4,5.6L556.2,142c-3.8,1.8-7.7,3.5-11.5,5.1-2.2,1-4.4,1.8-6.6,2.6a10.2,10.2,0,0,1-3,.8h-.7l-.5-.2h0a2.8,2.8,0,0,1,.4-1.3,2.7,2.7,0,0,1,1-.8l14.4-4.5a72.9,72.9,0,0,0,10-5.2,55,55,0,0,0,5-3.4,17,17,0,0,0,3.4-3.1,5.2,5.2,0,0,0,1.2-3.1,8.8,8.8,0,0,0-.4-3.2,6,6,0,0,0-2.8-3.1,7.7,7.7,0,0,0-4.5-1.1,24.8,24.8,0,0,0-6.1.7,37.4,37.4,0,0,0-5.7,1.7,66.7,66.7,0,0,0-16.4,9l-5.7,5.8-7.5,4.7,6.2-8.1a7.2,7.2,0,0,0,1.5-2.7,14,14,0,0,0,.2-5.4,7.7,7.7,0,0,0-1-2.9,3.6,3.6,0,0,0-2.1-1.7l-1.7-.6a17,17,0,0,0-4.5-.1l-2.3.8a64.9,64.9,0,0,0-7.9,4,4.1,4.1,0,0,0-2.4-2.6,12.5,12.5,0,0,0-4.4-1.3,38.5,38.5,0,0,0-4.8-.1,22.6,22.6,0,0,0-3.9.7,6.4,6.4,0,0,0-4.2,4.4,31,31,0,0,1-3.2,9.6l-4.1,6.9-5.9-1.3,1.8-2,.2-.2,5.1-3.8a7,7,0,0,0,2.6-4.2,4.3,4.3,0,0,0-2.3-4.2,12.4,12.4,0,0,0,4.4-1.1,5.5,5.5,0,0,0,2.9-2.9,3.7,3.7,0,0,0,.2-2.3,6.6,6.6,0,0,0-1.1-2.4,7.7,7.7,0,0,0-4.9-2.7,17.2,17.2,0,0,0-6,.5,11.1,11.1,0,0,0-2.7,1.2,5.8,5.8,0,0,0-1.9,1.9,3.8,3.8,0,0,0,.2,4.1,4.1,4.1,0,0,0-2.2.2,3.3,3.3,0,0,0-1.4,1.2,5.4,5.4,0,0,0-1,1.6l-.8,1.6a12.6,12.6,0,0,0-3.9-5.3,10.9,10.9,0,0,0-6.6-2.7,23.1,23.1,0,0,0-16.1,5.3,13.9,13.9,0,0,0-1-3.3,4.3,4.3,0,0,0-2.1-2.1,5,5,0,0,0-3.2-.2h-.3l-6.8,3.3-3.8,1.3a3,3,0,0,0-1.8,1.5,2.6,2.6,0,0,0,0,2.1l.3.5,2,2.4a3,3,0,0,1,.4.8l-3.5-.6a2.8,2.8,0,0,0,.9-1.7,2.8,2.8,0,0,0-.7-1.9l-.8-.6-6.4-3.5-1.3-.5H413a3.7,3.7,0,0,0-1.8.2l-1.4.5a6.3,6.3,0,0,0-3.9-1.9,14.6,14.6,0,0,0-9.2,1.7l-5,3Zm-49,16.5-1.9,1.7v-1.7Zm-14.8-27a7,7,0,0,0-2.1,4.4l-.2.5-.3.4-5.1,5h-1.1c-9.6.3-19.2.7-28.7,1.4q-20.9,1.3-41.7,3.3a4.4,4.4,0,0,0-1.9.7,19.5,19.5,0,0,1-6.4,2.8,33.8,33.8,0,0,1-7.1,1c6.3-2.5,12.8-4.6,19.4-6.5,9.8-2.8,19.7-5.1,29.8-7,7.1.2,14.3,0,21.4-.4l6.7-.7,3.3-.7a10.9,10.9,0,0,0,2.5-1,4.4,4.4,0,0,0,1.5-1.2l3.7-.4A13.4,13.4,0,0,0,317.3,116.2Zm127.5,20.2,2.8-2.4,1-.7.4-.2h.3a1.1,1.1,0,0,1,1.1.3,3.7,3.7,0,0,1,.7,1.2l.6,2.5a2,2,0,0,0,.4.8Zm15.2,3a10.6,10.6,0,0,0,3.5-.9l.7-.3-1,1.9Zm-49,7.5-4.5,2.1,1.2-2.2Zm-25.1-.1-6.3,4.8a26.9,26.9,0,0,1,3.4-4.9Zm110.2.8,4.8-4.3,7.9-5.5a109.6,109.6,0,0,0-6.7,11.4Zm22.2,6.9,2.2-1.3c0,.6.1,1.3.1,1.9Zm31.6,21v-.7h-.7v.7Z" style="fill:#00007f;fill-rule:evenodd"/><polygon points="351.3 141.5 351.2 141.5 351.2 141.5 351.3 141.5" style="fill:#ff0;fill-rule:evenodd"/><polygon points="330 140.3 329.7 140.3 330 140.5 330 140.4 330 140.3 330 140.3" style="fill:#ff0;fill-rule:evenodd"/><polygon points="316.1 141.1 316.2 141 316.1 141 316.1 141.1" style="fill:#ff0;fill-rule:evenodd"/><polygon points="479.7 145.9 479.9 145.9 479.8 145.7 479.7 145.9" style="fill:#ff0;fill-rule:evenodd"/><polygon points="435.7 144.4 435.6 144.4 435.7 144.5 435.7 144.4" style="fill:#ff0;fill-rule:evenodd"/><polygon points="379.5 128.6 379.6 128.5 379.3 128.6 379.5 128.6" style="fill:#ff0;fill-rule:evenodd"/><path d="M379.5,129l-6.9,12a121.6,121.6,0,0,1,15.2-11.2h-.1Z" style="fill:#00007f;fill-rule:evenodd"/><path d="M442.2,138.5h-.1l-6.4,6.2h2.2l20.5,3.8h.2l3.1-6.1-.2-.2-19.2-3.8Z" style="fill:#00007f;fill-rule:evenodd"/><path d="M479.7,146.2l-6.1-1.3h-.1c-1.6,1.7-3,3.5-4.4,5.3l-.3.5h.1l5.8,1.3h.3Z" style="fill:#00007f;fill-rule:evenodd"/><path d="M388.9,144.2h.1l11.5-8.7c-2.7,1.1-5.3,2.2-7.8,3.5a38.1,38.1,0,0,0-7.6,5.3h3.8Z" style="fill:#00007f;fill-rule:evenodd"/><path d="M292.3,143h0l14.4-14.1h.4l-.2-.2-.2.2c-9,.3-18,.7-27,1.4-12.7.8-25.3,1.8-37.9,2.9l-3.6.4h-.1a26,26,0,0,1-9.9,3.9,55.4,55.4,0,0,1-10,.7l-.2-.2h-.8l-1.9.3a9.8,9.8,0,0,1-4.8.2.1.1,0,0,1-.1-.1h0v-.2h.1a206.7,206.7,0,0,1,30-11c10.1-2.8,20.3-5.3,30.7-7.2,7.1.2,14.3.1,21.4-.4a61.3,61.3,0,0,0,8.6-1.1,6.3,6.3,0,0,0,2.3-.8l.4-.2.2-.3c0-.1.1-.1.1-.2v-.3a10.2,10.2,0,0,1,3-.8l3.2-.2a7.7,7.7,0,0,0,3-.6,10.8,10.8,0,0,0,3-1.6,5.1,5.1,0,0,0-.9-1.6,3.8,3.8,0,0,0-1.3-.9,10.4,10.4,0,0,0-3.4-1.1l-3.8-.6a7.5,7.5,0,0,1-3-.9q-12.5-1.9-24.9-3a189.6,189.6,0,0,0-25-.2l-6.9.6-7,.2a50.6,50.6,0,0,0-6.8,1,20.4,20.4,0,0,0-6.4,2.8,14.8,14.8,0,0,0-5.9.8,31.6,31.6,0,0,0-6,2.5,64.3,64.3,0,0,0-8.3,5.2,7.3,7.3,0,0,0-3.3-.2l-9.8,1.6a21.1,21.1,0,0,1-5,.4,3.1,3.1,0,0,1-.5-1,8.2,8.2,0,0,1,4.7-1.4,6.5,6.5,0,0,0,1.9-.2l.7-.3a1,1,0,0,0,.4-.7.8.8,0,0,0-.2-.4,1,1,0,0,0-.5-.4,2.5,2.5,0,0,0-1.2-.4,4.8,4.8,0,0,0-2.9.3c-4.1.5-8.2,1.2-12.3,2a46.8,46.8,0,0,1-5.4.8h-1.8l-.7-.2c-.1-.1-.3-.2-.4-.4h.1l.2-.2.6-.3,2.1-.7c4.1-1.1,8.2-2.1,12.4-3l3.1-1,.5-.2a1.1,1.1,0,0,0-.1-1,2.3,2.3,0,0,0-.7-1,4.2,4.2,0,0,0-3.3-.8,97.9,97.9,0,0,0-21.5,4.5c-7.1,2.2-14.2,4.4-21.3,6.4a19.8,19.8,0,0,1-8,2.5,38.3,38.3,0,0,1-6.8-.3,32.5,32.5,0,0,0-7-.5,19.9,19.9,0,0,0-8,2.2c-5.6,1.2-11.1,2.7-16.4,4.4l-16.2,5.6c-5.4,1.8-10.8,3.6-16.3,5.1a101.5,101.5,0,0,1-16.6,3.2,36.7,36.7,0,0,1-10.9,4.1L25,148.5a31.4,31.4,0,0,0-10.8,4.1,21.4,21.4,0,0,0-4.9,4,30.9,30.9,0,0,0-4.1,5.6,5.8,5.8,0,0,0,.3,3.2,6.5,6.5,0,0,0,1.6,2.1L9.2,169l1.9,1.3c4.3-2.2,8.8-4.2,13.3-6.1a93.5,93.5,0,0,0,13.1-6.4c11-2.9,21.8-5.9,32.6-9.2l21.5-6.4a96.4,96.4,0,0,1,13.3-3.6c6.6-1.2,13.2-2.2,19.9-3.1a170.4,170.4,0,0,0,20.1-4.1l2.5-.4,2.7-.3a8.2,8.2,0,0,0,4.8-1.9,2.9,2.9,0,0,0,1.6.2,48.1,48.1,0,0,0,10-1.3l15.4-2.8a124.2,124.2,0,0,0,19.3-.2,255,255,0,0,0,31.4-4.4,3.7,3.7,0,0,0,2.3.4l2.3-.6a5.8,5.8,0,0,1,5,.1,96.7,96.7,0,0,1-15.3,7q-7.7,2.7-15.6,4.8l-15.6,4.6a103.6,103.6,0,0,0-15.4,6.3,29.2,29.2,0,0,1-6.4,3.8l-3.3,1.4-3.3,1.3a48.8,48.8,0,0,0-6.6,2.9,27.1,27.1,0,0,0-5.9,4.7,15.3,15.3,0,0,0-3.8,2.7,26,26,0,0,0-3.3,4.3,12.7,12.7,0,0,0-1.3,3.2l-.6,2.2a1.9,1.9,0,0,0,.2.7.5.5,0,0,0,.3.4l1.3.7a13.6,13.6,0,0,0,4.5.1,31.5,31.5,0,0,0,11.4-3.4,113.7,113.7,0,0,1,16.3-6.1,13.5,13.5,0,0,1,4.5-1.7l5-1a32.5,32.5,0,0,0,4.3-.8l1.4-.7a2,2,0,0,0,.9-.9c13-2.6,26.1-5.3,39-8.1,6.5-1.3,13-2.5,19.5-3.5a161.7,161.7,0,0,1,18.4-2h19.5Z" style="fill:#00007f;fill-rule:evenodd"/><path d="M316.1,141.3v-4.2l-5.7,5.1h.1Z" style="fill:#00007f;fill-rule:evenodd"/><path d="M330,140.6h4.6l.5-.2,15.2-11.9h-.1l-8.7.3-10.6.7h-.2l-.6,5.2Z" style="fill:#00007f;fill-rule:evenodd"/><polygon points="351.3 141.8 356.1 142.3 356.2 142.3 360.2 134.8 351.3 141.8" style="fill:#00007f;fill-rule:evenodd"/><path d="M425.2,135.5H425l-6-1h0a40.2,40.2,0,0,0-5.7,4.5,25.4,25.4,0,0,0-4.4,5.4h3.7a.9.9,0,0,1,.6-.4,1.2,1.2,0,0,1,.9-.3,10.1,10.1,0,0,1,2.5-.3H418l4.6-2.1Z" style="fill:#00007f;fill-rule:evenodd"/><path d="M530.9,160.8h-.1a12.7,12.7,0,0,1-8.7-2.6l-.7-.2c-2.1-.7-4.3-1.2-6.5-1.8l.3-.2h-.3l-5.4,3.1a8.5,8.5,0,0,1-2.2.9,9.5,9.5,0,0,1-2.4-.1h-.2l-2.4-.9h-.4l-.5-.3a3.8,3.8,0,0,1-1.7-3.1,11.8,11.8,0,0,1,.9-3.7l.2-.4h.3l-.2-.2v.2l-2.6-.8-4.5-1.1h0l-5.7,5.5h.1l6.7,1.7,5.2,1.4,1.9.7h.4a9.9,9.9,0,0,0,2.4.9,110.6,110.6,0,0,0,11.3,3l14.5,2.9a141.4,141.4,0,0,1,14.3,3.4,67.4,67.4,0,0,1,13.3,5.4l.7-.2.5-.3.2-.3v-.3l-.2-.4-.4-.5-1.3-1-8.9-5.9c-6-1.6-12-3.3-17.9-5.1Z" style="fill:#00007f;fill-rule:evenodd"/><path d="M379.8,121.5a3.6,3.6,0,0,1,.7-1l.7-.4,1.3-.7,1.3-1.1,1.9-1.9a4.6,4.6,0,0,0,1-3.9,4.9,4.9,0,0,0-2.4-3.4,9.2,9.2,0,0,0-3.6-1.3,15.5,15.5,0,0,0-4.3,0,10.8,10.8,0,0,0-4,1.1,5.6,5.6,0,0,0-2.7,2.3,7.3,7.3,0,0,0-.8,2.5,2.6,2.6,0,0,0,.1,1.5,2.1,2.1,0,0,0,.8,1.1l.4.2Q353,129.9,336,143.3l-5.1,4.3a20.2,20.2,0,0,0-2.7,2.4l-.5.5-.6.3h-.9v-12a108.8,108.8,0,0,1,1.1-12.7l.3-1.8h.1l1.3-1.6a8.1,8.1,0,0,0,1.2-1.4,3.5,3.5,0,0,0,.4-1.7,4.3,4.3,0,0,0-.9-2.2,5.3,5.3,0,0,0-1.2-1.4,3.5,3.5,0,0,0-1.4-.6,5.5,5.5,0,0,0-1.8.1l-2.1.5-2,.8a3.8,3.8,0,0,0-1.5.9,3.3,3.3,0,0,0-1.1,1.3,5.7,5.7,0,0,0-.7,2.2,4.9,4.9,0,0,1-.4,1.1,3.9,3.9,0,0,1-.8,1l-45,44-.8.9a1,1,0,0,0-.4.5,2,2,0,0,0-.4,1.3,1.2,1.2,0,0,0,.5.9,5.3,5.3,0,0,0,2.1,1.1,3.7,3.7,0,0,0,2.1-.2l.7-.4.9-.8,9-8.8,10.7-10.3c7-6.7,14.1-13.2,21.4-19.7a2.7,2.7,0,0,0,.8-.7v-.2a.1.1,0,0,0,.1-.1v-.4h.6l-.3,27.9a9.1,9.1,0,0,0,.1,1.7,2.3,2.3,0,0,0,1.8,1.6,4.2,4.2,0,0,0,2.5.1,7.3,7.3,0,0,0,3.3-1.2,3.1,3.1,0,0,0,1-1.3,4.8,4.8,0,0,0,.4-2v-.8l.3-.4.6-.4,40.6-32.1-18.2,34.3-.5,1a.7.7,0,0,0-.1.5,1.7,1.7,0,0,0,.5,1.5,4.5,4.5,0,0,0,1.4,1,5.8,5.8,0,0,0,1.9.3,4,4,0,0,0,1.5-.3,1.2,1.2,0,0,0,.8-.4,3.3,3.3,0,0,0,.6-1Z" style="fill:red;fill-rule:evenodd"/><path d="M403,153.5l-.6.2-.3.2h-.5a2.2,2.2,0,0,1-.5-.8,1.4,1.4,0,0,1,0-.9,17.9,17.9,0,0,1,1.9-4.5,33.1,33.1,0,0,1,2.9-4.7,42.8,42.8,0,0,1,6.3-7.2q3.4-2.7,7.2-5.1l-5.5-3.1-1.1-.5h-.9l-1.5.5-1.5.6h-.8l-.5-.4a12.1,12.1,0,0,0-1.6-1.6,2.7,2.7,0,0,0-1.2-.3h-1.6l-2.8.4-2.1.8-2.8,1.6c-4.4,2.7-8.7,5.6-12.8,8.6l-3.8,2.8a41.2,41.2,0,0,0-4.1,3.2,20.1,20.1,0,0,0-3.9,3.8,14.8,14.8,0,0,0-2.7,4.3,8.7,8.7,0,0,0-.3,4.8,7.2,7.2,0,0,0,1.9,3.9,5.4,5.4,0,0,0,3.3,1.6,11.5,11.5,0,0,0,3.7-.2,6.8,6.8,0,0,0,2.6-1.1l2.8-2.3,4.1-3.6c2.5-1.8,5-3.5,7.7-5.2l4.1-2.4a19.4,19.4,0,0,0-2.1,2.9,13,13,0,0,0-.8,1.7,34.6,34.6,0,0,0-1.4,5.3v1.9a1.8,1.8,0,0,0,.7.8l1.3.5a8.2,8.2,0,0,0,2.7.1l1.2-.3,1.6-.8,4.4-2.5a125.1,125.1,0,0,1,12.6-6.5l5-2c-1.3,1.9-2.6,3.7-3.8,5.6a35.5,35.5,0,0,0-2.1,4.4l-.8,2.3-.3,1.4v.4c.1.2.1.3.3.4a2.8,2.8,0,0,0,2,.8,3.4,3.4,0,0,0,1.7-.5l.6-.7.8-1.3c1.5-2.7,3-5.4,4.4-8.2l2.4-4.3a3.9,3.9,0,0,1,.8-1c2.1-2.3,4.2-4.5,6.4-6.7l5.1-4.9,3.3-2.9,1-.7.9-.6a4.6,4.6,0,0,1,1.9-.8,4.9,4.9,0,0,1,6,4.4v1l.3.6a.9.9,0,0,0,.6.3l1.2.2a14.4,14.4,0,0,0,5.5-.8,12.3,12.3,0,0,0,2.6-1.2,3.9,3.9,0,0,0,1.4-1.7,2.8,2.8,0,0,0,.1-.9l-.3-1a9,9,0,0,0-1.2-2.4,18.4,18.4,0,0,0-1.7-2.2,5.7,5.7,0,0,0-1.6-1.5,7.9,7.9,0,0,0-3.4-1,18.9,18.9,0,0,0-12,3.3c-3.2,2.5-6.3,5.1-9.2,7.8a27.6,27.6,0,0,0,1.8-3.9,12.2,12.2,0,0,0,.3-2.6,12.7,12.7,0,0,0-.3-2.8l-.5-1.3a2.5,2.5,0,0,0-.4-.7c-.1-.2-.2-.3-.4-.3h-.7l-.9.4a31.1,31.1,0,0,1-5.5,2.7c-1.3.6-2.7,1-4,1.5l2,2.4a4.9,4.9,0,0,1,1,2.5,10.7,10.7,0,0,1-.3,2.5l-1.2,2.9-1.7,3.5a3,3,0,0,1-.6,1.1,3.9,3.9,0,0,1-1.1.6Zm-28.9.6c1-2.1,2.1-4.2,3.3-6.2a26.5,26.5,0,0,1,4.8-5.3,48.7,48.7,0,0,1,5.6-4.3,84.6,84.6,0,0,1,7.9-4.1l3.9-1.5,1.4-.2h1a12,12,0,0,1,2.1,1.7l1.1,1.1-28,21.2Z" style="fill:red;fill-rule:evenodd"/><path d="M456.7,158.6a5.4,5.4,0,0,0-.5,1.1v.3c.1,0,.1.1.2.2l.4.5.5.2h1.9l.3-.2.3-.4.3-.6c1.8-3.6,3.7-7.2,5.7-10.7a54.6,54.6,0,0,1,4.3-5.5l2.7-3,1.9-1.8,3-2.2a26.5,26.5,0,0,0,2.6-2.1l.8-1a4.2,4.2,0,0,0,.4-1,3,3,0,0,0-.2-1,2,2,0,0,0-.9-.9l-2-1.1a53.1,53.1,0,0,0-5.6-2Z" style="fill:red;fill-rule:evenodd"/><path d="M580.5,131.4l-2,.2h-.1l-.9.3-7.4,4.4c-4.3,2.6-8.5,5.3-12.6,8l-.9.4c-3,1.5-6,2.9-9.1,4.2s-5,2.2-7.6,3.1l-3,1.1-2.1.4h-1.1l-1.4-.5a5.7,5.7,0,0,1-1.3-.8,3.1,3.1,0,0,1-.9-1.1,5.7,5.7,0,0,1-.1-1.3,12.1,12.1,0,0,1,.5-1.4,13.9,13.9,0,0,1,.6-1.3l.7-.8,1-.5,1.4-.6,8.7-2.5,4.7-1.5a84.6,84.6,0,0,0,8.5-4.3,63.7,63.7,0,0,0,5.5-3.5,15.6,15.6,0,0,0,2-1.6,8.7,8.7,0,0,0,1.3-1.5,4.8,4.8,0,0,0,.5-3.1,3.2,3.2,0,0,0-1.5-2.3,6.5,6.5,0,0,0-2.9-.7,15.3,15.3,0,0,0-3.7.2,42,42,0,0,0-8.5,2.7,69.7,69.7,0,0,0-8.2,4.1,30.2,30.2,0,0,0-5.4,3.7l-1.5,1.4-1.4,1.4a26.5,26.5,0,0,1-2.9,2.9,14.6,14.6,0,0,1-2.4,1.7l-8.2,4.9-4.1,2.3-.9.6h-1.3l-.3-.3-.8-.9,11.7-15.4a3.6,3.6,0,0,0,.7-1,1.1,1.1,0,0,0,.3-.8,9.1,9.1,0,0,0,.3-3.3,8.8,8.8,0,0,0-.2-1.6,2.7,2.7,0,0,0-.3-1.2,2.4,2.4,0,0,0-.9-.8l-1.4-.4h-2.8l-1.8.7-2.8,1.3a144.3,144.3,0,0,0-13.6,8.2,22.5,22.5,0,0,0-4.1,3.4,45.6,45.6,0,0,0-3.1,4.2c.4-1.4.8-2.7,1.3-4a4.2,4.2,0,0,1,.9-1.4,30.9,30.9,0,0,1,3.3-3.9,7.4,7.4,0,0,1,1.3-1.2,22.5,22.5,0,0,0,3.6-2.4,3.3,3.3,0,0,0,1-1.4,1.3,1.3,0,0,0-.2-1.3,1.8,1.8,0,0,0-.7-.5l-1.1-.4a15.7,15.7,0,0,0-3-.5h-3.3a13.1,13.1,0,0,0-2.7.6,3.4,3.4,0,0,0-2.1,2.1,9,9,0,0,0-.3,1.6l-.4,2.2a15.4,15.4,0,0,1-1.1,3,82,82,0,0,1-6,10.8l-2.5,3.2-3.1,3.6a17.7,17.7,0,0,0-2.1,3.2,2.1,2.1,0,0,0-.3,1.2,1,1,0,0,0,.5.8l2.1.8,1.4.4c2.1-2.2,4.2-4.4,6.4-6.5,3.7-3.8,7.6-7.4,11.7-10.9,2.2-1.7,4.6-3.3,7-4.8l8.3-5.3,1-.5H516l.7.2c.1.2.2.3.2.5a1.4,1.4,0,0,1-.2.7,7.6,7.6,0,0,1-1.2,1.9l-3.4,3.8a86.4,86.4,0,0,0-5.7,9.1c-.9,1.6-1.8,3.3-2.6,5.1l-.9,1.9a7,7,0,0,0-.3,1.4,1.5,1.5,0,0,0,.5,1.3,7.2,7.2,0,0,0,2,.9h1.5l.6-.3,16.5-9.3-.3,2.9a33.8,33.8,0,0,0,0,4.5,2,2,0,0,0,.9,1.3,5.9,5.9,0,0,0,1.7,1,9.5,9.5,0,0,0,4.1.6,40.4,40.4,0,0,0,6.8-1.9c5.4-2,10.8-4.2,16-6.6l4.9-2.2c1.7-.8,3.2-1.7,4.8-2.6,5.1-3.1,10.2-6.2,15.2-9.4l2.4-1.7,1-.7h0a1.7,1.7,0,0,0,.1-.7.4.4,0,0,0-.1-.3h-.7Zm-44.7,10.4.6-1.1,1.2-1.4a37.1,37.1,0,0,1,2.9-2.7c2.1-1.5,4.3-3,6.5-4.3s2.4-1.4,3.7-2l1.4-.6.6-.2h.4a3.2,3.2,0,0,1,2.2,1.3,1.9,1.9,0,0,1,.5,1,1,1,0,0,1-.2.9,2.7,2.7,0,0,1-.7.8l-1.4.9a87.2,87.2,0,0,1-10,5.4l-1.9.6-2.7.9a8.3,8.3,0,0,1-2.1.6h-1Z" style="fill:red;fill-rule:evenodd"/><path d="M486.8,122.2a4.7,4.7,0,0,0-3.5-2.5h-.6a14.2,14.2,0,0,0-3.6.5,6,6,0,0,0-2.3,1,1.7,1.7,0,0,0-.4,1.9,2.7,2.7,0,0,0,1.7,1.8,7.7,7.7,0,0,0,2.7.7,8.8,8.8,0,0,0,2.8-.2,6.5,6.5,0,0,0,2.1-.7,4.1,4.1,0,0,0,.9-1l.3-.8A1.7,1.7,0,0,0,486.8,122.2Z" style="fill:red;fill-rule:evenodd"/></g></g></svg>